# xmcd
#
# Track frame offsets:
#	150
#	15686
#	35130
#	53861
#	68275
#	99795
#	116539
#	142373
#	169449
#	191779
#	208791
#	222604
#	246484
#
# Disc length: 3537 seconds
# Revision: 0
# Processed by: cddbd v1.5.2PL0 Copyright (c) Steve Scherf et al.
# Submitted via: dBpowerAMP V12.0
#
DISCID=cd0dcf0d
DTITLE=Various Artist - Tony Cini's Blues Explosion Volume 6
DYEAR=2015
DGENRE=Blues
TTITLE0=Owen Campbell - Wreckin Ball
TTITLE1=John McNamara - Blackwood
TTITLE2=Wolfie - Talking To Myself
TTITLE3=The Urban Chiefs - Shot Glass Blues
TTITLE4=Hussy Hicks - Whole Lotta
TTITLE5=The Bella Reunion - Bullet
TTITLE6=The JHD Revival Band - Don't Cut Me Out (Of You)
TTITLE7=Streamliners - House of Fires
TTITLE8=The Chris Harland Blues Band - Forgive Me Baby
TTITLE9=Cameron James Henderson - Love Is Gone (Australia Blues)
TTITLE10=Dreamboogie - I Aint Gonna Go To (Jackson)
TTITLE11=Doggn It - The Hungry Mile
TTITLE12=Steve Edmonds Mescalero - Beso De La Muerte
EXTD=
EXTT0=
EXTT1=
EXTT2=
EXTT3=
EXTT4=
EXTT5=
EXTT6=
EXTT7=
EXTT8=
EXTT9=
EXTT10=
EXTT11=
EXTT12=
PLAYORDER=
